<svg width="25" height="25" viewBox="0 0 25 25" fill="none" xmlns="http://www.w3.org/2000/svg">
<rect width="24.675" height="24.675" fill="#0037C0"/>
<path d="M3.30963 4.4014C3.23794 4.32971 3.18107 4.2446 3.14227 4.15092C3.10347 4.05725 3.0835 3.95686 3.0835 3.85547C3.0835 3.75408 3.10347 3.65368 3.14227 3.56001C3.18107 3.46634 3.23794 3.38123 3.30963 3.30953C3.38132 3.23784 3.46643 3.18097 3.56011 3.14217C3.65378 3.10337 3.75417 3.0834 3.85556 3.0834C3.95695 3.0834 4.05735 3.10337 4.15102 3.14217C4.24469 3.18097 4.32981 3.23784 4.4015 3.30953L12.3376 11.2472L20.2737 3.30953C20.3454 3.23784 20.4305 3.18097 20.5242 3.14217C20.6178 3.10337 20.7182 3.0834 20.8196 3.0834C20.921 3.0834 21.0214 3.10337 21.1151 3.14217C21.2088 3.18097 21.2939 3.23784 21.3656 3.30953C21.4373 3.38123 21.4941 3.46634 21.5329 3.56001C21.5717 3.65368 21.5917 3.75408 21.5917 3.85547C21.5917 3.95686 21.5717 4.05725 21.5329 4.15092C21.4941 4.2446 21.4373 4.32971 21.3656 4.4014L13.4279 12.3375L21.3656 20.2736C21.4373 20.3453 21.4941 20.4304 21.5329 20.5241C21.5717 20.6177 21.5917 20.7181 21.5917 20.8195C21.5917 20.9209 21.5717 21.0213 21.5329 21.115C21.4941 21.2087 21.4373 21.2938 21.3656 21.3655C21.2939 21.4372 21.2088 21.494 21.1151 21.5328C21.0214 21.5716 20.921 21.5916 20.8196 21.5916C20.7182 21.5916 20.6178 21.5716 20.5242 21.5328C20.4305 21.494 20.3454 21.4372 20.2737 21.3655L12.3376 13.4278L4.4015 21.3655C4.32981 21.4372 4.24469 21.494 4.15102 21.5328C4.05735 21.5716 3.95695 21.5916 3.85556 21.5916C3.75417 21.5916 3.65378 21.5716 3.56011 21.5328C3.46643 21.494 3.38132 21.4372 3.30963 21.3655C3.23794 21.2938 3.18107 21.2087 3.14227 21.115C3.10347 21.0213 3.0835 20.9209 3.0835 20.8195C3.0835 20.7181 3.10347 20.6177 3.14227 20.5241C3.18107 20.4304 3.23794 20.3453 3.30963 20.2736L11.2473 12.3375L3.30963 4.4014Z" fill="#FBF8EB"/>
</svg>
