<svg width="14" height="12" viewBox="0 0 14 12" fill="none" xmlns="http://www.w3.org/2000/svg">
<path fill-rule="evenodd" clip-rule="evenodd" d="M0 5.89049C0 5.66735 0.0886417 5.45335 0.246425 5.29556C0.404208 5.13778 0.618207 5.04914 0.841346 5.04914H10.5892L6.97644 1.43808C6.81846 1.2801 6.72971 1.06583 6.72971 0.842409C6.72971 0.618989 6.81846 0.404718 6.97644 0.246736C7.13442 0.0887537 7.34869 0 7.57212 0C7.79554 0 8.00981 0.0887537 8.16779 0.246736L13.2159 5.29481C13.2942 5.37297 13.3564 5.46581 13.3988 5.56803C13.4412 5.67024 13.463 5.77982 13.463 5.89049C13.463 6.00115 13.4412 6.11073 13.3988 6.21295C13.3564 6.31516 13.2942 6.40801 13.2159 6.48616L8.16779 11.5342C8.00981 11.6922 7.79554 11.781 7.57212 11.781C7.34869 11.781 7.13442 11.6922 6.97644 11.5342C6.81846 11.3763 6.72971 11.162 6.72971 10.9386C6.72971 10.7151 6.81846 10.5009 6.97644 10.3429L10.5892 6.73183H0.841346C0.618207 6.73183 0.404208 6.64319 0.246425 6.48541C0.0886417 6.32763 0 6.11363 0 5.89049Z" fill="#0037C0"/>
</svg>
